# Blender 4.2.1 LTS
# www.blender.org
mtllib map.mtl
o Cube
v 11.000000 0.000000 -8.000000
v 11.000000 3.000000 -8.000000
v 11.000000 0.000000 -2.000000
v 11.000000 3.000000 -2.000000
v 1.000000 0.000000 -8.000000
v 1.000000 3.000000 -8.000000
v 1.000000 0.000000 -2.000000
v 1.000000 3.000000 -2.000000
v 11.300000 3.000000 -8.300000
v 11.300000 3.000000 -1.700000
v 0.700000 3.000000 -1.700000
v 0.700000 3.000000 -8.300000
v 11.300000 3.200000 -8.300000
v 11.300000 3.200000 -1.700000
v 0.700000 3.200000 -1.700000
v 0.700000 3.200000 -8.300000
v 7.000000 0.000000 3.000000
v 7.000000 5.000000 3.000000
v 7.000000 0.000000 9.000001
v 7.000000 5.000000 9.000001
v 1.000000 0.000000 3.000000
v 1.000000 5.000000 3.000000
v 1.000000 0.000000 9.000001
v 1.000000 5.000000 9.000001
v 7.300000 5.000000 2.700000
v 7.300000 5.000000 9.300001
v 0.700000 5.000000 9.300001
v 0.700000 5.000000 2.700000
v 7.300000 5.200000 2.700000
v 7.300000 5.200000 9.300001
v 0.700000 5.200000 9.300001
v 0.700000 5.200000 2.700000
vn 1.0000 -0.0000 -0.0000
vn -0.0000 -0.0000 1.0000
vn -1.0000 -0.0000 -0.0000
vn -0.0000 -0.0000 -1.0000
vn -0.0000 -1.0000 -0.0000
vn -0.0000 1.0000 -0.0000
vt 0.625000 0.000000
vt 0.375000 0.250000
vt 0.375000 0.000000
vt 0.625000 0.250000
vt 0.375000 0.500000
vt 0.625000 0.500000
vt 0.375000 0.750000
vt 0.625000 0.750000
vt 0.375000 1.000000
vt 0.125000 0.750000
vt 0.125000 0.500000
vt 0.625000 1.000000
vt 0.875000 0.500000
vt 0.875000 0.750000
s 0
usemtl Material.001
f 2/1/1 3/2/1 1/3/1
f 4/4/2 7/5/2 3/2/2
f 8/6/3 5/7/3 7/5/3
f 6/8/4 1/9/4 5/7/4
f 7/5/5 1/10/5 3/11/5
f 8/6/5 12/8/5 6/8/5
f 18/1/1 19/2/1 17/3/1
f 20/4/2 23/5/2 19/2/2
f 24/6/3 21/7/3 23/5/3
f 22/8/4 17/9/4 21/7/4
f 23/5/5 17/10/5 19/11/5
f 2/1/1 4/4/1 3/2/1
f 4/4/2 8/6/2 7/5/2
f 8/6/3 6/8/3 5/7/3
f 6/8/4 2/12/4 1/9/4
f 7/5/5 5/7/5 1/10/5
f 8/6/5 11/6/5 12/8/5
f 18/1/1 20/4/1 19/2/1
f 20/4/2 24/6/2 23/5/2
f 24/6/3 22/8/3 21/7/3
f 22/8/4 18/12/4 17/9/4
f 23/5/5 21/7/5 17/10/5
usemtl Material.002
f 11/6/3 16/8/3 12/8/3
f 2/1/5 10/4/5 4/4/5
f 6/8/5 9/12/5 2/12/5
f 8/6/5 10/4/5 11/6/5
f 14/13/6 16/8/6 15/6/6
f 9/1/1 14/4/1 10/4/1
f 12/8/4 13/12/4 9/12/4
f 10/4/2 15/6/2 11/6/2
f 22/8/5 27/6/5 28/8/5
f 27/6/3 32/8/3 28/8/3
f 18/1/5 26/4/5 20/4/5
f 22/8/5 25/12/5 18/12/5
f 20/4/5 27/6/5 24/6/5
f 30/13/6 32/8/6 31/6/6
f 25/1/1 30/4/1 26/4/1
f 28/8/4 29/12/4 25/12/4
f 26/4/2 31/6/2 27/6/2
f 11/6/3 15/6/3 16/8/3
f 2/1/5 9/1/5 10/4/5
f 6/8/5 12/8/5 9/12/5
f 8/6/5 4/4/5 10/4/5
f 14/13/6 13/14/6 16/8/6
f 9/1/1 13/1/1 14/4/1
f 12/8/4 16/8/4 13/12/4
f 10/4/2 14/4/2 15/6/2
f 22/8/5 24/6/5 27/6/5
f 27/6/3 31/6/3 32/8/3
f 18/1/5 25/1/5 26/4/5
f 22/8/5 28/8/5 25/12/5
f 20/4/5 26/4/5 27/6/5
f 30/13/6 29/14/6 32/8/6
f 25/1/1 29/1/1 30/4/1
f 28/8/4 32/8/4 29/12/4
f 26/4/2 30/4/2 31/6/2
